<?xml version="1.0"?>
<svg xmlns="http://www.w3.org/2000/svg" viewBox="0 0 32 32">
    <path d="M 8 3 C 6.9006421 3 6 3.9007 6 5 L 6 27 C 6 28.0994 6.9006421 29 8 29 L 24 29 C 25.099357 29 26 28.0994 26 27 L 26 8.5 A 0.50005 0.50005 0 0 0 26 8.4921875 A 0.50005 0.50005 0 0 0 26 8.484375 A 0.50005 0.50005 0 0 0 25.998047 8.4492188 A 0.50005 0.50005 0 0 0 25.996094 8.4335938 A 0.50005 0.50005 0 0 0 25.800781 8.09375 L 20.916016 3.2109375 A 0.50005 0.50005 0 0 0 20.908203 3.2011719 A 0.50005 0.50005 0 0 0 20.5 3 L 8 3 z M 8 4 L 20 4 L 20 7 C 20 8.0994 20.900642 9 22 9 L 25 9 L 25 27 C 25 27.5627 24.562661 28 24 28 L 8 28 C 7.4373387 28 7 27.5627 7 27 L 7 5 C 7 4.4374 7.4373387 4 8 4 z M 21 4.7070312 L 24.292969 8 L 22 8 C 21.437338 8 21 7.5627 21 7 L 21 4.7070312 z M 10.457031 14 A 0.50005 0.50005 0 0 0 10.507812 15 L 17.132812 15 L 21.5 15 A 0.50005 0.50005 0 1 0 21.5 14 L 17.132812 14 L 10.507812 14 A 0.50005 0.50005 0 0 0 10.457031 14 z M 10.457031 16 A 0.50005 0.50005 0 0 0 10.507812 17 L 17.132812 17 L 21.5 17 A 0.50005 0.50005 0 1 0 21.5 16 L 17.132812 16 L 10.507812 16 A 0.50005 0.50005 0 0 0 10.457031 16 z M 10.457031 18 A 0.50005 0.50005 0 0 0 10.507812 19 L 17.132812 19 L 21.5 19 A 0.50005 0.50005 0 1 0 21.5 18 L 17.132812 18 L 10.507812 18 A 0.50005 0.50005 0 0 0 10.457031 18 z M 10.457031 20 A 0.50005 0.50005 0 0 0 10.507812 21 L 14.875 21 L 17.5 21 A 0.50005 0.50005 0 1 0 17.5 20 L 14.875 20 L 10.507812 20 A 0.50005 0.50005 0 0 0 10.457031 20 z M 19.449219 20 A 0.50005 0.50005 0 0 0 19.5 21 A 0.50005 0.50005 0 1 0 19.5 20 A 0.50005 0.50005 0 0 0 19.449219 20 z "/>
</svg>